<svg width="50" height="82" viewBox="0 0 50 82" fill="none" xmlns="http://www.w3.org/2000/svg">
  <!-- Dark stroke -->
  <path d="M25 0C11.2 0 0 11.2 0 25C0 44 25 82 25 82C25 82 50 44 50 25C50 11.2 38.8 0 25 0Z" fill="#CC7000"/>
  <!-- Lighter stroke -->
  <path d="M25 2C12.3 2 2 12.3 2 25C2 42 25 78 25 78C25 78 48 42 48 25C48 12.3 37.7 2 25 2Z" fill="#FFB74D"/>
  <!-- main color -->
  <path d="M25 4C13.4 4 4 13.4 4 25C4 40 25 74 25 74C25 74 46 40 46 25C46 13.4 36.6 4 25 4Z" fill="#FF9800"/>
  <!-- Inner circle: light stroke -->
  <circle cx="25" cy="25" r="9" fill="#FFB74D"/>
  <!-- Inner circle: dark stroke -->
  <circle cx="25" cy="25" r="7" fill="#6B2C00"/>
  <!-- circle -->
  <circle cx="25" cy="25" r="5" fill="#FFFFFF"/>
</svg>
